<svg fill="#77DBF7" role="img" width="32px" height="32px" xmlns="http://www.w3.org/2000/svg" viewBox="0 0 32 32"><path d="M9.2 15.5c.3 0 .3-.2.3-2.9 0-2.1 0-2.6-.1-2.7-.1-.1-.3-.1-.4 0v2.7c0 3 0 2.9.2 2.9zM18.9 10c-.1 0-.3-.1-.3-.1v1.8h.1c.3 0 .4-.1.4-.9 0-.5 0-.7-.2-.8zM13.6 20.6V22.3h.1c.4 0 .4-.1.4-.9v-.6l-.1-.1c-.1-.1-.3-.2-.4-.1z"/><path d="M16 0C7.2 0 0 7.2 0 16s7.2 16 16 16 16-7.2 16-16S24.8 0 16 0zM5.8 16.5c-.9.5-2.2.3-2.8-.5-.2-.3-.3-.8-.3-1.7v-.6h1.6v.7c0 .8 0 .9.3 1 .3 0 .5-.6.3-1.3-.1-.4-.1-.4-1-1.1-1.1-.9-1.3-1.3-1.3-2.5 0-1.4.4-2 1.5-2.2s2.2.3 2.3 1.1c.1.3.1 1.4.1 1.4H4.9v-.5c0-.6-.1-.7-.3-.7-.2 0-.3.2-.3.7 0 .6.1.7.4 1 1.7 1.2 1.9 1.5 1.9 2.7.2 1.5-.1 2.2-.8 2.5zm1.5-6.6c.2-.8.7-1.3 1.5-1.5 1.2-.2 2.1.3 2.4 1.4.1.6.1 4.9 0 5.5-.3 1.2-1.4 1.7-2.8 1.3-.5-.2-1-.7-1.2-1.4 0-.3 0-5 .1-5.3zm4.1 10.2v.8h-1v6.4H8.6v-6.4h-1v-1.6h3.8v.8zm4.4 7.1h-1.6v-1.7c0-1.9 0-2-.4-1.9h-.1v3.6h-1.8v-8c.1-.1 2.4 0 2.8.1s.7.3.9.7c.3.7.3 2.3 0 2.6-.1.2-.5.4-.6.4s0 .1.2.1c.2.1.4.3.6.6 0 .3.1 3.5 0 3.5zm.2-15.3c0 3.6 0 3.5-.2 3.9-.8 1.6-3.4 1.2-3.8-.5 0-.3-.1-6.6 0-6.7H13.7v3.3c0 3.7 0 3.6.3 3.5.2-.1.2 0 .2-3.5V8.6H16v3.3zm4.6 10.7v3.3l-.1.2c-.3.9-.8 1.2-1.8 1.3-1.1 0-1.8-.4-2.1-1.3-.1-.3-.1-6.8 0-6.8H18.3v3.3c0 3.6 0 3.5.2 3.5.3 0 .3.2.3-3.5 0-2.6 0-3.3.1-3.3h1.7v3.3zm-.6-6h-.8v-1.7c0-1.9 0-1.9-.4-1.9h-.1v3.6h-1.8v-8c.1-.1 2.8 0 3.1.1.6.3.9 1 .8 2.3 0 .9-.2 1.1-.7 1.3l-.2.1.2.1c.3.1.4.3.6.6l.1.2v3.4H20v-.1zm4.3 9.8v.8h-3v-8h2.9c.1 0 .1 0 .1.8 0 .9.1.8-.7.8H23v1.4h.5c.7 0 .7-.1.7.8s.1.8-.7.8H23v1.6h1.2l.1 1zM25.7 12h-1.8v-1c0-1.2 0-1.2-.3-1.2s-.3-.2-.3 2.8c0 2.9 0 2.8.2 2.9.3.1.4-.1.4-1.2v-.9h1.8v.3c.1 2.1-.6 3.1-2.1 3.1-1.1 0-1.8-.5-2-1.5-.1-.4-.1-5 0-5.3.2-.8.8-1.3 1.6-1.5.6-.1 1.3 0 1.7.3.7.4.9 1.1.9 2.7v.5h-.1zm3.7 4.6h-3v-8h3v1.6h-1.2v1.4h1.2v1.6h-1v1.6h1.2v1.8h-.2z" class="st0"/></svg>